<svg xmlns="http://www.w3.org/2000/svg" width="116" height="113.909" viewBox="0 0 116 113.909">
  <g id="Group_38" data-name="Group 38" transform="translate(-495.392 -548.922)">
    <path id="Path_31" data-name="Path 31" d="M540.224,652.765l.008,1.032c-.017.378-.045.756-.048,1.134-.011,1.716-.008,1.716,1.77,1.6l1.032.008,4.051-.008,1.034.008c1.381.049,3.219.593,4.02-.166.88-.835.247-2.691.248-4.1l-.008-1.033q0-2.025.008-4.049c-.048-.592.221-.866.814-.816l3.262.059q.042.631.084,1.261,0,2.025-.008,4.051,0,.517.008,1.033l-.008,4.049q0,.517.008,1.034c-.192.9.38,2.11-.272,2.641-.547.446-1.689.161-2.567.2l-1.032-.008-4.051.008-1.032-.008-4.051.008-1.032-.008-4.051.008-1.032-.008c-.97.09-1.5-.221-1.275-1.316a4.284,4.284,0,0,0-.03-1.005l-.008-1.033q0-2.025.008-4.05l-.008-1.033a9.661,9.661,0,0,1,.056-1.115c.2-1.212-.23-1.894-1.526-1.885a1.846,1.846,0,0,0-1-.332l-2.788-1.093-.789-.361-2.256-1.069a2.149,2.149,0,0,0-1.018-.546c-.6-.582-.9.032-1.233.342-1.858,1.728-3.755,3.421-5.524,5.237-.886.908-1.55,1.085-2.349.029l-.788-.81-1.715-1.751-.494-.485a12.123,12.123,0,0,0-1.932-1.989l-.994-1.012-1.519-1.541-1.011-1.03-1.5-1.523-1.024-1.046-1.493-1.508a1.844,1.844,0,0,0-.762-.755,11.7,11.7,0,0,1,2.1-2.93c1.1-1.482,2.236-2.94,3.438-4.339.662-.77.751-1.411.021-2.128a2.113,2.113,0,0,0-.511-1.041l-1.077-2.5-.311-.809-.98-2.755-.393-1.039c-.112-.48-.259-.956-.328-1.442-.13-.909-.586-1.289-1.5-1.032L503.826,618l-4.051.008L498.742,618l-3.261-.058q-.043-.631-.085-1.262l.008-4.05-.008-1.033.008-4.051-.008-1.032.008-4.051-.008-1.032.008-4.051-.008-1.032q-.06-.867.807-.807l1.032.008,4.051-.008,1.034.008c1.047.014,2.095,0,3.141.051a.931.931,0,0,0,1.083-.733c.617-1.731,1.321-3.432,1.991-5.144l1.194-2.5a1.216,1.216,0,0,0-.113-2.08,12.191,12.191,0,0,1-.964-.986l-.724-.815a8.686,8.686,0,0,0-1.528-1.743,1.849,1.849,0,0,0-.709-.778l-1.6-2.007q6.845-6.966,13.694-13.929c.278-.282.5-.733,1.034-.532l1.516,1.255,1,.823a8.513,8.513,0,0,0,1.776,1.475,2.857,2.857,0,0,0,1.006.838c1.732,1.654,1.732,1.654,3.349.626L530,568.239c.794-.282,1.613-.511,2.377-.859,1.153-.526,2.9-.241,3.424-1.453.484-1.113.169-2.574.206-3.882l.017-1.29.137-3.778-.007.008,3.769-.084,1.032.008L545,556.9l1.032.008,4.051-.008,1.032.008,4.051-.008,1.262.085.058,3.26q0,.517.008,1.033l-.008,4.051q0,.517.008,1.033.061.868-.807.807l-1.032-.008a4.292,4.292,0,0,0-1.005-.029c-1.095.224-1.406-.3-1.316-1.275l-.008-1.032c.017-1.055.008-2.112.059-3.165.031-.627-.261-.717-.765-.591l-1.032-.008-4.051.008-1.034-.008-4.049.008c-1.055-.245-1.554.081-1.258,1.224q-.072,2.025-.144,4.051l-.023,1.294a1.878,1.878,0,0,1-2.059,2.386,2.1,2.1,0,0,0-.584.2,3.556,3.556,0,0,0-1.526.437,22.131,22.131,0,0,0-6.617,2.552,11.862,11.862,0,0,0-3.3,1.979c-.988.117-1.3-.928-2.07-1.2l-.974-.8-1.8-1.492a1.181,1.181,0,0,0-.685-.543c-.335-.315-.68-.619-1-.946-.429-.435-.76-.466-1.233.025q-3.993,4.14-8.058,8.21c-.441.441-.45.729-.01,1.116.281.248.534.527.8.792l.468.513a12.3,12.3,0,0,0,2.072,2.346,1.153,1.153,0,0,0,.554.659c.319.71,1.152,1.048,1.341,1.853a19.6,19.6,0,0,0-1.611,3,27.686,27.686,0,0,0-3.091,6.85,4.058,4.058,0,0,0-.539,1.768c-.522.986-.169,2.789-2.2,2.362l-1.034-.008-4.05.008-1.032-.008c-2.359-.124-2.359-.124-2.236,2.235l.008,1.033-.008,4.051.008,1.032-.008,4.051.008,1.032c-.126.5-.037.795.591.764,1.053-.051,2.11-.042,3.165-.059l1.032.008,4.051-.008a1.35,1.35,0,0,1,.99.367l.578,2.477.282,1.026a12.232,12.232,0,0,0,.879,2.819l.481,1.393a9.858,9.858,0,0,0,1.11,2.658c0,.205.016.4.229.506a10.242,10.242,0,0,0,1.36,2.771l.34.553c1,1.184.838,2.193-.255,3.3a34.021,34.021,0,0,0-2.557,3.253c-.557.674-1.1,1.355-1.674,2.018-.4.469-.321.814.213,1.085a12.417,12.417,0,0,0,2.062,2.1l.446.448a11.278,11.278,0,0,0,1.917,1.983l.734.743a10.162,10.162,0,0,0,1.783,1.809.884.884,0,0,0,.523.508c.572,1.094,1.154,1.172,2.064.237,1.594-1.637,3.339-3.126,4.958-4.74.578-.576,1.072-.719,1.73-.251l1.131.684a9.529,9.529,0,0,0,2.515,1.355,1.3,1.3,0,0,0,.789.41,8.544,8.544,0,0,0,2.529,1.066,2.014,2.014,0,0,0,1.031.435,11.68,11.68,0,0,0,3.022.886.961.961,0,0,0,.782.189c.823.363,2.143.212,1.827,1.758l.008,1.032Q540.228,650.74,540.224,652.765Z" transform="translate(0 -3.922)" fill="#0055a5"/>
    <path id="Path_32" data-name="Path 32" d="M586.115,660.514c-.924-1.361-1.878-2.7-2.759-4.093-.355-.561-.832-.476-1.326-.476-4.319,0-8.647.162-12.956-.039-11.043-.513-20.031-5.1-25.79-14.656-6.212-10.306-5.119-20.7,1.5-30.441a30.416,30.416,0,0,1,23.063-13.763c.295-.029.6-.01.886-.061.872-.155,1.229.147,1.126,1.067-.107.955.4,2.245-.216,2.794-.582.522-1.838.282-2.8.395a26.657,26.657,0,0,0-22.97,21.434,23.821,23.821,0,0,0,15.142,27.177,30.043,30.043,0,0,0,10.909,2.023c4.742-.005,9.485.015,14.228-.019a1.641,1.641,0,0,1,1.549.816c1.358,1.987,2.779,3.93,4.176,5.89l.292.432.746,1.055,1.352,1.987.583.809a12.138,12.138,0,0,0,1.593,2.274,1.368,1.368,0,0,0,.53.747,13.381,13.381,0,0,0,1.722,2.492c.051.164.079.345.292.386.168.489.483.347.809.194a9.867,9.867,0,0,1,4.318-.833l1.279.256,2.186.851,1.106.731,1.586,1.5.651.79,1.257,2.557c.078.336.012.711.275,1a13.03,13.03,0,0,1-.205,3.8l-.845,2a12.788,12.788,0,0,1-3.761,3.761l-2,.845a12.968,12.968,0,0,1-3.8.2c-.288-.25-.656-.207-.994-.275l-2.56-1.257-.788-.65-1.5-1.586-.731-1.106-.851-2.187q-.128-.64-.256-1.279a10.172,10.172,0,0,1,.947-4.6c.229-.75,1.528-1.32.386-2.3l-1.351-1.984-.575-.808a12.819,12.819,0,0,0-1.6-2.277,1.394,1.394,0,0,0-.531-.747,11.194,11.194,0,0,0-1.565-2.271l-.372-.543Zm20.3,16.736a5.057,5.057,0,1,0-5.058,5.1A4.745,4.745,0,0,0,606.415,677.25Z" transform="translate(-21.524 -23.611)" fill="#0055a5"/>
    <path id="Path_33" data-name="Path 33" d="M624.992,602.177l-.382-.794c-.638-2.316-.638-2.316-2.386-2.207l-1.032-.008a3.12,3.12,0,0,0-3.949,1.9,18.412,18.412,0,0,1-1.482,2.339c-1.924,2.831-3.917,5.619-5.739,8.514a2.886,2.886,0,0,1-2.871,1.471c-7.452-.065-14.905-.057-22.358-.026a9.983,9.983,0,0,0-9.3,6.307,10.345,10.345,0,0,0,2.392,11.236,10.127,10.127,0,0,0,6.777,2.766c1.31.052,2.626.048,3.937,0,.685-.026.831.217.849.866.091,3.219.106,3.1-3.178,3.242a15.129,15.129,0,0,1-15.263-11.619c-1.165-5.455,1.625-11.572,6.912-14.784a13.919,13.919,0,0,1,7.346-2.09c6.818,0,13.635-.012,20.453.015a1.786,1.786,0,0,0,1.75-.9c1.939-3.024,3.949-6,5.934-9l1.551-2.294c.682-.6.864-1.605,1.677-2.1l4.057-.008,1.032.008a6.2,6.2,0,0,1,.631.044,2.663,2.663,0,0,0,3.167-1.658c1.319-2.48,3.691-3.742,6.358-4.446l1.028-.04a12.084,12.084,0,0,1,3.526.661l.787.377,1.923,1.35.815.814,1.348,1.923.376.788a12.06,12.06,0,0,1,.662,3.525q-.021.514-.042,1.028a10.309,10.309,0,0,1-7.877,7.877l-1.028.042a12.213,12.213,0,0,1-3.519-.657l-.795-.381-1.929-1.353-.8-.8Zm8.115-9.118a5.05,5.05,0,1,0,5.09,5.043A4.709,4.709,0,0,0,633.106,593.059Z" transform="translate(-37.046 -19.663)" fill="#0055a5"/>
    <path id="Path_34" data-name="Path 34" d="M646.683,691.126l-.771-.994-.221-.287q-3.207-4.25-6.409-8.5c-.457-.61-1.081-.36-1.635-.367-2.148-.03-2.149-.013-2.148-2.075,0-2.005.024-1.808,2.082-2.056a5.137,5.137,0,0,1,5.493,2.705c1.475,2.3,3.326,4.367,5.012,6.535l.8,1.022.811,1.05c.569,1.48,1.813.818,2.825.89l1.034.008q1.077.021,2.155.042c.389.008.7-.01.916-.468a10.185,10.185,0,0,1,7.084-5.635l1.029-.04a12.077,12.077,0,0,1,3.524.661l.787.377,1.923,1.35.814.814,1.348,1.923.377.788a12.081,12.081,0,0,1,.662,3.525l-.042,1.028a10.306,10.306,0,0,1-7.877,7.877l-1.028.042a12.068,12.068,0,0,1-3.525-.662l-.787-.376-1.923-1.348-.813-.813-1.351-1.925-.377-.788c-.649-2.321-.649-2.321-2.391-2.213l-1.034-.008-4.05.008a1.429,1.429,0,0,1-.992-.371A7.651,7.651,0,0,0,646.683,691.126Zm18.3,6.068a5.05,5.05,0,1,0-5.045-4.961A4.725,4.725,0,0,0,664.979,697.194Z" transform="translate(-68.883 -62.863)" fill="#0055a5"/>
    <path id="Path_35" data-name="Path 35" d="M657.708,649.2c-4.357-.014-8.713-.056-13.069-.018-.929.008-1.21-.2-1.2-1.17.037-2.939-.012-2.927,2.974-2.927,3.764,0,7.528-.023,11.292-.037l2.786-.009,1.032.008c.211.014.423.016.631.043,2.251.3,3.83.059,4.7-2.7.963-3.069,3.767-4.63,6.862-5.436l1.028-.04a12.082,12.082,0,0,1,3.526.661l.787.377,1.923,1.35.815.814,1.348,1.923.376.788a12.062,12.062,0,0,1,.662,3.525q-.021.514-.042,1.028a10.31,10.31,0,0,1-7.877,7.877l-1.028.042a12.087,12.087,0,0,1-3.525-.662l-.788-.377L669,652.915l-.813-.813-1.351-1.925c-.18-.379-.119-.943-.75-.976l-4.051.008L661,649.2Zm22.33-2.978a4.727,4.727,0,0,0-4.841-5.164c-3.174-.055-5.205,1.825-5.258,4.868-.055,3.138,1.871,5.193,4.9,5.231C677.984,651.2,680,649.282,680.039,646.223Z" transform="translate(-72.788 -43.262)" fill="#0055a5"/>
    <path id="Path_36" data-name="Path 36" d="M634.9,574.543c-.186.167-.444.3-.547.507-1.335,2.713-3.776,2.487-6.195,2.4-.584-.022-.732-.247-.69-.76.024-.294.007-.592.008-.888.012-2.314.011-2.345,2.293-2.423,1.054-.036,1.333-.881,1.838-1.512,2.583-2.93,5.125-5.9,7.773-8.767.882-.955,1.217-1.81.517-2.947q-.128-.639-.256-1.278a10.706,10.706,0,0,1,.919-4.59A11.153,11.153,0,0,1,645,549.866a10.2,10.2,0,0,1,4.591-.942l1.279.256,2.187.852,1.106.731,1.586,1.5.65.789,1.257,2.559c.068.339.026.707.275,1a12.971,12.971,0,0,1-.2,3.8l-.845,2a12.785,12.785,0,0,1-3.76,3.76l-2,.846a13.015,13.015,0,0,1-3.794.205,1.952,1.952,0,0,0-1-.276l-2.557-1.256c-.345-.423-.657-.761-1.174-.144-1.908,2.276-3.844,4.529-5.769,6.79A12.494,12.494,0,0,0,634.9,574.543Zm8.874-16.5a5.058,5.058,0,1,0,5.146-4.992A4.744,4.744,0,0,0,643.776,558.047Z" transform="translate(-64.934 0)" fill="#0055a5"/>
    <path id="Path_37" data-name="Path 37" d="M618.456,681.042c-3.011,0-2.972,0-3-2.983-.01-.9.234-1.153,1.12-1.106,1.429.076,2.865.042,4.3.01.555-.012.783.177.71.724a.749.749,0,0,0,0,.126C621.71,681.042,621.71,681.042,618.456,681.042Z" transform="translate(-59.027 -62.944)" fill="#0055a5"/>
    <path id="Path_38" data-name="Path 38" d="M611.567,655.105c-.005,1.957-.005,1.957-1.985,1.962-2.084.006-2.084.006-2.084-2.113,0-1.957,0-1.957,1.979-1.957C611.573,653,611.573,653,611.567,655.105Z" transform="translate(-55.117 -51.169)" fill="#0055a5"/>
    <path id="Path_39" data-name="Path 39" d="M629.48,657.067c-1.982.007-1.982.007-1.982-1.963,0-2.107,0-2.107,2.082-2.107,1.994,0,1.994,0,1.987,1.958C631.56,657.06,631.56,657.06,629.48,657.067Z" transform="translate(-64.95 -51.169)" fill="#0055a5"/>
    <path id="Path_40" data-name="Path 40" d="M611.566,599.095c0,1.971,0,1.971-1.966,1.971-2.109,0-2.109,0-2.1-2.093C607.5,597,607.5,597,609.467,597,611.565,596.991,611.565,596.991,611.566,599.095Z" transform="translate(-55.116 -23.635)" fill="#0055a5"/>
    <path id="Path_41" data-name="Path 41" d="M532.5,629.679l.095-.331c.234.186.008.241-.094.331Z" transform="translate(-18.244 -39.541)" fill="#0055a5"/>
  </g>
</svg>
