<svg xmlns="http://www.w3.org/2000/svg" xmlns:xlink="http://www.w3.org/1999/xlink" width="98.944" height="117.023" viewBox="0 0 98.944 117.023">
  <defs>
    <clipPath id="clip-path">
      <path id="Path_62" data-name="Path 62" d="M333.142-1489.893l-10.627-10.737-3.542,3.579,14.169,14.315,30.363-30.676-3.542-3.579Z" transform="translate(-318.973 1516.99)" fill="none" clip-rule="evenodd"/>
    </clipPath>
    <clipPath id="clip-path-2">
      <rect id="Rectangle_124" data-name="Rectangle 124" width="2466.375" height="9463.001" fill="none"/>
    </clipPath>
  </defs>
  <g id="Group_1610" data-name="Group 1610" transform="translate(-245.477 -849.451)">
    <g id="Group_100" data-name="Group 100" transform="translate(-46.473 2400.687)">
      <g id="Group_95" data-name="Group 95" transform="translate(318.973 -1516.99)" clip-path="url(#clip-path)">
        <g id="Group_94" data-name="Group 94" transform="translate(-698.806 -1502.776)">
          <g id="Group_93" data-name="Group 93" transform="translate(0)" clip-path="url(#clip-path-2)">
            <path id="Path_65" data-name="Path 65" d="M0,0H61.659V51.383H0Z" transform="translate(690.242 1494.212)" fill="#0055a5"/>
          </g>
        </g>
      </g>
    </g>
    <g id="Group_101" data-name="Group 101" transform="translate(-1158.21 934.651)">
      <path id="Path_63" data-name="Path 63" d="M1404.265-30.372a9.582,9.582,0,0,0,7.138,8.429,9.508,9.508,0,0,0-1.548,9.518,9.678,9.678,0,0,0,9.031,6.451,10.484,10.484,0,0,0,1.634-.143,9.492,9.492,0,0,0,.889,7.282l-8.257,17.689a.786.786,0,0,0,.086.86.856.856,0,0,0,.774.373l14.822-1.347,8.486,12.213a.9.9,0,0,0,.717.373h.086a.866.866,0,0,0,.717-.487l8.486-18.233a9.3,9.3,0,0,0,5.82-4.157,9.407,9.407,0,0,0,5.82,4.157l8.486,18.233a.866.866,0,0,0,.717.487h.086a.9.9,0,0,0,.717-.373l8.486-12.213,14.822,1.347h.086a.845.845,0,0,0,.86-.86,1.2,1.2,0,0,0-.115-.459l-8.2-17.6a9.352,9.352,0,0,0,.889-7.282,10.484,10.484,0,0,0,1.634.143,9.678,9.678,0,0,0,9.031-6.451,9.453,9.453,0,0,0-1.548-9.518,9.643,9.643,0,0,0,7.139-8.429,9.641,9.641,0,0,0-5.218-9.747,9.512,9.512,0,0,0,3.268-10.034,9.67,9.67,0,0,0-8.916-7.339,9.4,9.4,0,0,0,.057-8.687,9.95,9.95,0,0,0-8.773-5.562,9.165,9.165,0,0,0-3.5.688,9.365,9.365,0,0,0-2.035-6.508,10.237,10.237,0,0,0-7.884-3.784,9.32,9.32,0,0,0-6.737,2.838,9.63,9.63,0,0,0-9.145-6.193,9.658,9.658,0,0,0-9.145,6.221,9.207,9.207,0,0,0-6.737-2.838,10.246,10.246,0,0,0-7.913,3.784,9.279,9.279,0,0,0-2.036,6.508,9.38,9.38,0,0,0-3.5-.688,10.016,10.016,0,0,0-8.773,5.562,9.394,9.394,0,0,0,.057,8.687,9.67,9.67,0,0,0-8.916,7.339,9.479,9.479,0,0,0,3.268,10.034A9.581,9.581,0,0,0,1404.265-30.372Zm7.311-8.715a.9.9,0,0,0,.6-.717.88.88,0,0,0-.43-.831,7.914,7.914,0,0,1-3.842-9.059,7.866,7.866,0,0,1,7.683-6.049c.344,0,.688.029,1.061.057a.832.832,0,0,0,.831-.43.874.874,0,0,0-.057-.946,7.725,7.725,0,0,1-.8-8.314,8.218,8.218,0,0,1,7.225-4.616A8.317,8.317,0,0,1,1428-68.817a.874.874,0,0,0,.946-.057.882.882,0,0,0,.344-.889,7.879,7.879,0,0,1,1.462-6.737,8.5,8.5,0,0,1,6.565-3.125,7.735,7.735,0,0,1,6.422,3.412.882.882,0,0,0,.889.344.825.825,0,0,0,.66-.659,7.837,7.837,0,0,1,7.913-6.451,7.837,7.837,0,0,1,7.913,6.451.791.791,0,0,0,.659.659.882.882,0,0,0,.889-.344,7.773,7.773,0,0,1,6.422-3.412,8.539,8.539,0,0,1,6.565,3.125,7.858,7.858,0,0,1,1.462,6.737.833.833,0,0,0,.344.889.874.874,0,0,0,.946.057,8.237,8.237,0,0,1,4.157-1.175,8.218,8.218,0,0,1,7.225,4.616,7.714,7.714,0,0,1-.8,8.314.871.871,0,0,0-.057.946.909.909,0,0,0,.831.43c.344-.029.717-.057,1.061-.057A7.866,7.866,0,0,1,1498.5-49.7a7.927,7.927,0,0,1-3.842,9.059.881.881,0,0,0-.43.831.793.793,0,0,0,.6.717,7.816,7.816,0,0,1,5.591,8.543,7.815,7.815,0,0,1-7.253,7.2.859.859,0,0,0-.745.6.864.864,0,0,0,.258.917,7.8,7.8,0,0,1,2.236,8.83,7.98,7.98,0,0,1-7.425,5.332,8.357,8.357,0,0,1-2.724-.459.851.851,0,0,0-.917.229.88.88,0,0,0-.143.946,7.705,7.705,0,0,1-.459,7.6,8.443,8.443,0,0,1-6.967,3.87,7.941,7.941,0,0,1-5.39-2.179.841.841,0,0,0-.917-.143.882.882,0,0,0-.516.8,7.756,7.756,0,0,1-2.236,5.734,8.386,8.386,0,0,1-5.963,2.437,7.752,7.752,0,0,1-7.282-4.874.882.882,0,0,0-1.605,0,7.8,7.8,0,0,1-7.282,4.874,8.435,8.435,0,0,1-5.963-2.437A7.986,7.986,0,0,1,1436.89,3a.882.882,0,0,0-.516-.8.824.824,0,0,0-.917.143,7.838,7.838,0,0,1-5.39,2.179A8.4,8.4,0,0,1,1423.1.648a7.705,7.705,0,0,1-.459-7.6.88.88,0,0,0-.143-.946.838.838,0,0,0-.917-.229,8.356,8.356,0,0,1-2.724.459A8.009,8.009,0,0,1,1411.432-13a7.8,7.8,0,0,1,2.236-8.83.9.9,0,0,0,.258-.917.952.952,0,0,0-.745-.6,7.815,7.815,0,0,1-7.253-7.2A7.894,7.894,0,0,1,1411.575-39.088Zm65.566,56.048a.828.828,0,0,0-.774.373l-7.941,11.41-7.4-15.911h.229a10.076,10.076,0,0,0,7.167-2.924,9.159,9.159,0,0,0,2.609-5.275,9.252,9.252,0,0,0,5.218,1.605,10.053,10.053,0,0,0,7.511-3.469l7.2,15.481Zm-47.132.344a.9.9,0,0,0-.717-.373h-.086l-13.818,1.261,7.2-15.481a10.155,10.155,0,0,0,7.511,3.469,9.252,9.252,0,0,0,5.218-1.605,9.159,9.159,0,0,0,2.609,5.275,10.176,10.176,0,0,0,7.167,2.924h.229l-7.4,15.911Z" transform="translate(0)" fill="#0055a5" stroke="#0055a5" stroke-width="1"/>
      <g id="Group_1609" data-name="Group 1609">
        <path id="Path_64" data-name="Path 64" d="M1480.2,28.674a38.137,38.137,0,0,0,38.1-38.1A38.113,38.113,0,0,0,1480.2-47.5a38.137,38.137,0,0,0-38.1,38.1A38.113,38.113,0,0,0,1480.2,28.674Zm0-74.453A36.412,36.412,0,0,1,1516.582-9.4,36.412,36.412,0,0,1,1480.2,26.982,36.412,36.412,0,0,1,1443.82-9.4,36.412,36.412,0,0,1,1480.2-45.78Z" transform="translate(-27.027 -26.535)" fill="#0055a5" stroke="#0055a5" stroke-width="1"/>
      </g>
    </g>
  </g>
</svg>
