<svg xmlns="http://www.w3.org/2000/svg" width="119.652" height="119.639" viewBox="0 0 119.652 119.639">
  <g id="Group_102" data-name="Group 102" transform="translate(-26.98 -65.351)">
    <path id="Path_67" data-name="Path 67" d="M50.977,157.232c-.571-1.146-1.012-2.2-1.6-3.176-3.346-5.574-3.051-5.66-9.525-3.649-3.8,1.182-4.881,2.262-6.248-3.473-.507-2.126-1.221-4.2-1.827-6.3-.544-1.888-.144-2.695,1.735-3.309,1.858-.608,3.746-1.122,5.611-1.706,2.094-.655,2.853-1.734,2.8-3.938-.041-1.594-.12-3.186-.159-4.779a3.116,3.116,0,0,0-2.472-3.222c-1.946-.527-3.913-.976-5.868-1.467-2.068-.519-2.731-1.442-2.28-3.43.662-2.919,1.392-5.825,2.15-8.721a2.329,2.329,0,0,1,3.163-1.9c2.025.467,4.05.935,6.062,1.453a3.2,3.2,0,0,0,3.858-1.7c.867-1.477,1.617-3.023,2.461-4.515a3.253,3.253,0,0,0-.681-4.316c-1.405-1.369-2.865-2.683-4.263-4.059-1.491-1.467-1.513-2.581-.085-4.112,1.966-2.107,3.945-4.2,5.958-6.266,1.344-1.379,2.587-1.393,3.988-.1q2.163,2,4.275,4.046a3.394,3.394,0,0,0,4.516.457c1.474-.877,2.959-1.741,4.379-2.7a3.107,3.107,0,0,0,1.4-3.8c-.621-1.982-1.186-3.983-1.734-5.987-.488-1.784-.037-2.639,1.731-3.184,2.963-.913,5.957-1.726,8.911-2.665,1.671-.531,2.592.138,3.076,1.646.615,1.92,1.158,3.863,1.761,5.787a3.437,3.437,0,0,0,3.936,2.8c1.593-.052,3.186-.125,4.779-.169A3.119,3.119,0,0,0,94,78.286c.523-1.946.972-3.913,1.464-5.868.518-2.061,1.446-2.717,3.438-2.264,2.919.664,5.826,1.387,8.722,2.144a2.323,2.323,0,0,1,1.889,3.164c-.467,2.025-.938,4.049-1.454,6.062a3.2,3.2,0,0,0,1.711,3.855c1.478.867,3.021,1.621,4.511,2.469a3.247,3.247,0,0,0,4.315-.688c1.37-1.4,2.683-2.865,4.058-4.263,1.461-1.486,2.581-1.5,4.11-.077,2.107,1.966,4.206,3.943,6.27,5.954,1.375,1.34,1.384,2.589.088,3.99s-2.627,2.748-3.916,4.145c-1.488,1.612-1.61,2.887-.476,4.8.811,1.37,1.624,2.742,2.494,4.075a3.259,3.259,0,0,0,4.095,1.514c1.917-.622,3.864-1.156,5.808-1.691,1.792-.493,2.632-.053,3.18,1.725.894,2.905,1.737,5.826,2.585,8.745.542,1.866.125,2.678-1.759,3.3-1.8.59-3.624,1.1-5.433,1.66-2.324.721-3.045,1.762-2.949,4.18q.092,2.3.155,4.6a3.1,3.1,0,0,0,2.491,3.2c2.009.527,4.039.973,6.051,1.488,1.81.463,2.492,1.436,2.093,3.244-.659,2.982-1.405,5.947-2.175,8.9-.438,1.683-1.479,2.256-3.179,1.862-2.024-.47-4.049-.942-6.063-1.454a3.136,3.136,0,0,0-3.747,1.576c-.915,1.52-1.69,3.123-2.558,4.67a3.257,3.257,0,0,0,.705,4.313c1.364,1.324,2.768,2.606,4.135,3.927,1.6,1.545,1.652,2.663.181,4.238-1.967,2.107-3.941,4.208-5.951,6.272-1.339,1.375-2.582,1.382-3.984.081q-2.157-2-4.269-4.053a3.377,3.377,0,0,0-4.513-.46c-1.467.888-2.957,1.745-4.376,2.706a3.118,3.118,0,0,0-1.405,3.806c.618,1.984,1.185,3.984,1.733,5.988.489,1.79.042,2.645-1.724,3.189-2.963.913-5.958,1.724-8.911,2.664-1.67.532-2.594-.134-3.078-1.64-.618-1.919-1.161-3.862-1.762-5.787a3.468,3.468,0,0,0-3.93-2.826c-1.593.042-3.185.147-4.778.184a3.106,3.106,0,0,0-3.22,2.47c-.527,1.946-.975,3.912-1.466,5.868-.522,2.077-1.433,2.735-3.421,2.285-2.919-.662-5.825-1.391-8.722-2.149-1.771-.463-2.3-1.472-1.862-3.325.46-1.963.9-3.933,1.4-5.886a3.206,3.206,0,0,0-1.7-3.862c-1.475-.871-3.019-1.625-4.507-2.476a3.237,3.237,0,0,0-4.315.67c-1.368,1.406-2.684,2.864-4.057,4.265-1.476,1.5-2.582,1.534-4.11.11q-3.1-2.885-6.138-5.825c-1.565-1.513-1.59-2.685-.134-4.246,1.3-1.39,2.659-2.722,3.9-4.161A16.165,16.165,0,0,0,50.977,157.232ZM89.1,169.865a40.594,40.594,0,0,0,29.425-12.1c9.17-9.077,12.9-20.305,12.015-32.943-1.42-20.272-18.628-37.959-41.523-38.036a41.8,41.8,0,0,0-41.589,41.591C47.441,151.4,66.588,170.257,89.1,169.865Z" transform="translate(-2.535 -3.172)" fill="none" stroke="#0063b0" stroke-miterlimit="10" stroke-width="3"/>
    <path id="Path_68" data-name="Path 68" d="M117.281,198.658c-22.507.392-41.654-18.461-41.672-41.488A41.8,41.8,0,0,1,117.2,115.579c22.895.077,40.1,17.763,41.523,38.036.885,12.638-2.844,23.866-12.015,32.943A40.594,40.594,0,0,1,117.281,198.658ZM105.532,174c-1.5,1.475-3.12,3.034-4.7,4.635-1.6,1.619-1.37,2.55.755,3.3,7.769,2.735,14.845-3.084,13.458-11.175a3.24,3.24,0,0,1,1.124-3.309q7.081-6.832,14.023-13.808a3.079,3.079,0,0,1,3.048-.972,9.506,9.506,0,0,0,9.48-3.574c2.431-3.112,2.668-6.619,1.3-10.245-.574-1.521-1.639-1.745-2.844-.669-.868.775-1.664,1.63-2.491,2.45-3.057,3.034-3.036,3.016-5.918-.306-.631-.727-.6-1.221.057-1.852q2.06-1.971,4.058-4.005c1.48-1.513,1.247-2.5-.738-3.208-7.664-2.739-15.041,3.124-13.628,10.886a2.733,2.733,0,0,1-.875,2.756q-7.532,7.293-14.926,14.727a2.723,2.723,0,0,1-2.579.813,9.617,9.617,0,0,0-9.267,3.7c-2.361,3.081-2.568,6.528-1.281,10.09.588,1.628,1.662,1.843,2.943.688.682-.615,1.315-1.285,1.968-1.933,3.658-3.626,3.672-3.625,6.852.531A3.538,3.538,0,0,1,105.532,174ZM91.912,147.346c4.114-4.3,8.293-8.683,12.507-13.034a1.787,1.787,0,0,1,1.306-.55c2.776.456,5.536,1.011,8.649,1.6-2.1,2.113-3.845,3.909-5.64,5.648-1.049,1.016-1.121,1.917-.032,2.953,1.642,1.563,3.233,3.179,4.839,4.779.769.767,1.629,1.247,2.541.336.96-.958.328-1.791-.443-2.5-1.388-1.275-2.8-2.524-4.226-3.8,2.164-2.19,4-3.988,5.765-5.851,1.684-1.778,1.154-3.678-1.227-4.233-2.912-.679-5.852-1.25-8.795-1.783a5.03,5.03,0,0,0-4.66,1.055c-4.393,4.27-8.772,8.556-13.092,12.9a3.03,3.03,0,0,0-.057,4.594c1.678,1.784,3.427,3.506,5.223,5.172a3.4,3.4,0,0,0,4.659-.01c.729-.638,1.407-1.334,2.653-2.527,1.283,1.525,2.472,2.994,3.725,4.406.717.807,1.6,1.548,2.655.554,1.085-1.026.3-1.869-.477-2.636-1.566-1.554-3.162-3.078-4.7-4.659-1.151-1.185-2.225-1.149-3.272.066-.87,1.01-1.692,2.062-2.521,3.079Zm50.017,26.94.3-.181a15.481,15.481,0,0,0-1.731-2.859c-2.184-2.32-4.5-4.517-6.765-6.761-1.655-1.64-3.319-3.271-4.964-4.92-.787-.789-1.8-1.237-2.5-.282-.34.459.091,1.589.352,2.354.142.416.657.706,1.006,1.051,3.4,3.363,6.764,6.764,10.222,10.067,1.3,1.242,1.21,2.244-.011,3.383-.807.752-1.561,1.56-2.361,2.32-1.5,1.426-2,1.418-3.5-.067q-5.43-5.366-10.841-10.75c-.8-.8-1.7-1.182-2.562-.357-.949.906-.327,1.76.432,2.51,3.838,3.792,7.612,7.654,11.545,11.345a5.334,5.334,0,0,0,3.4,1.361c2.538-.052,7.539-5,7.937-7.479A6.494,6.494,0,0,0,141.929,174.286Z" transform="translate(-30.72 -31.965)" fill="none"/>
    <path id="Path_69" data-name="Path 69" d="M135.062,199.754a3.533,3.533,0,0,0-.179-.481c-3.18-4.157-3.194-4.158-6.852-.531-.653.647-1.286,1.318-1.968,1.933-1.281,1.155-2.355.94-2.943-.688-1.287-3.562-1.08-7.008,1.281-10.09a9.617,9.617,0,0,1,9.267-3.7,2.723,2.723,0,0,0,2.579-.813q7.416-7.41,14.926-14.727a2.733,2.733,0,0,0,.875-2.756c-1.413-7.762,5.963-13.625,13.628-10.886,1.985.71,2.218,1.694.738,3.208q-1.993,2.038-4.058,4.005c-.66.631-.688,1.125-.057,1.852,2.883,3.322,2.861,3.34,5.918.306.827-.821,1.623-1.675,2.491-2.45,1.2-1.076,2.27-.852,2.844.669,1.366,3.626,1.129,7.134-1.3,10.245a9.506,9.506,0,0,1-9.48,3.574,3.079,3.079,0,0,0-3.048.972q-6.959,6.957-14.023,13.808a3.24,3.24,0,0,0-1.124,3.309c1.387,8.091-5.689,13.91-13.458,11.175-2.125-.748-2.352-1.679-.755-3.3C131.942,202.788,133.564,201.229,135.062,199.754Zm-9.459-2.98c2.766-2.243,4.954-6.376,8.9-2.272,1.283,1.335,2.83,2.744,3.356,4.4.933,2.944-2.382,4.025-3.774,6.418a18.119,18.119,0,0,0,2.916-.314c3.788-1.088,5.7-4.87,4.391-8.936a3.266,3.266,0,0,1,1-3.862c5.516-5.312,10.951-10.709,16.367-16.122a3.064,3.064,0,0,1,3.279-.9,10.58,10.58,0,0,0,3.808.188,5.976,5.976,0,0,0,5.065-7.271,35.01,35.01,0,0,1-3.72,3.24,3.287,3.287,0,0,1-4.483-.7c-1.414-1.552-3.216-3.066-3.855-4.935-.985-2.885,2.421-3.982,3.607-6.1a6.48,6.48,0,0,0-7.313,8.3,3.733,3.733,0,0,1-1.232,4.288c-5.549,5.366-11.016,10.817-16.487,16.263a2.9,2.9,0,0,1-3.07.911C129.155,188.2,125.093,191.536,125.6,196.774Z" transform="translate(-60.251 -57.72)" fill="#0055a5"/>
    <path id="Path_70" data-name="Path 70" d="M113.739,173.42l5.382,5.553c.829-1.017,1.651-2.069,2.521-3.079,1.047-1.215,2.121-1.251,3.272-.066,1.536,1.582,3.132,3.106,4.7,4.659.773.767,1.562,1.61.477,2.636-1.05.993-1.938.253-2.655-.554-1.253-1.412-2.442-2.881-3.725-4.406-1.247,1.192-1.924,1.889-2.653,2.527a3.4,3.4,0,0,1-4.659.01c-1.8-1.665-3.545-3.388-5.223-5.172a3.03,3.03,0,0,1,.057-4.594c4.32-4.343,8.7-8.629,13.092-12.9a5.03,5.03,0,0,1,4.66-1.055c2.943.534,5.883,1.1,8.795,1.783,2.381.555,2.911,2.455,1.227,4.233-1.765,1.864-3.6,3.661-5.765,5.851,1.426,1.281,2.838,2.53,4.226,3.8.771.708,1.4,1.541.443,2.5-.912.911-1.772.431-2.541-.336-1.606-1.6-3.2-3.216-4.839-4.779-1.089-1.036-1.016-1.937.032-2.953,1.8-1.739,3.536-3.534,5.64-5.648-3.113-.589-5.873-1.144-8.649-1.6a1.787,1.787,0,0,0-1.306.55C122.032,164.737,117.853,169.121,113.739,173.42Z" transform="translate(-52.548 -58.039)" fill="#0055a5"/>
    <path id="Path_71" data-name="Path 71" d="M214.888,248.412a6.487,6.487,0,0,1-.037.734c-.4,2.482-5.4,7.427-7.937,7.479a5.334,5.334,0,0,1-3.4-1.361c-3.933-3.691-7.707-7.552-11.545-11.345-.759-.75-1.382-1.6-.432-2.51.864-.825,1.764-.44,2.562.357q5.4,5.4,10.841,10.75c1.5,1.485,2,1.494,3.5.067.8-.76,1.554-1.568,2.361-2.32,1.221-1.138,1.31-2.141.011-3.383-3.458-3.3-6.822-6.7-10.222-10.067-.349-.345-.864-.635-1.006-1.051-.261-.765-.692-1.9-.352-2.354.708-.954,1.717-.507,2.5.282,1.645,1.65,3.31,3.28,4.964,4.92,2.265,2.244,4.581,4.441,6.765,6.761a15.485,15.485,0,0,1,1.731,2.859Z" transform="translate(-103.679 -106.09)" fill="#0055a5"/>
    <path id="Path_72" data-name="Path 72" d="M131.141,202.269c-.51-5.238,3.552-8.575,8.75-7.4a2.9,2.9,0,0,0,3.07-.911c5.472-5.446,10.938-10.9,16.487-16.263a3.733,3.733,0,0,0,1.232-4.288,6.48,6.48,0,0,1,7.313-8.3c-1.186,2.118-4.592,3.214-3.607,6.1.638,1.87,2.441,3.383,3.855,4.935a3.287,3.287,0,0,0,4.483.7,35.007,35.007,0,0,0,3.72-3.24,5.976,5.976,0,0,1-5.065,7.271,10.579,10.579,0,0,1-3.808-.188,3.064,3.064,0,0,0-3.279.9c-5.417,5.413-10.852,10.81-16.367,16.122a3.266,3.266,0,0,0-1,3.862c1.306,4.066-.6,7.848-4.391,8.936a18.121,18.121,0,0,1-2.916.314c1.392-2.392,4.707-3.474,3.774-6.418-.526-1.66-2.074-3.07-3.356-4.4C136.095,195.893,133.907,200.026,131.141,202.269Z" transform="translate(-65.788 -63.214)" fill="none"/>
  </g>
</svg>
